<svg width="25" height="24" viewBox="0 0 25 24" fill="none" xmlns="http://www.w3.org/2000/svg">
<path d="M21.6218 4H2.62183V6H4.92183L8.44283 15.683C8.5835 16.0685 8.83914 16.4015 9.17518 16.6371C9.51122 16.8726 9.91146 16.9993 10.3218 17H18.6218V15H10.3218L9.59383 13H18.6218C19.0218 13 19.3838 12.762 19.5408 12.394L22.5408 5.394C22.6066 5.24194 22.6334 5.0759 22.6189 4.91087C22.6045 4.74584 22.5492 4.587 22.458 4.44869C22.3668 4.31038 22.2426 4.19694 22.0966 4.11861C21.9507 4.04028 21.7875 3.99952 21.6218 4V4Z" fill="#42526E"/>
<path d="M11.1218 21C11.9503 21 12.6218 20.3284 12.6218 19.5C12.6218 18.6716 11.9503 18 11.1218 18C10.2934 18 9.62183 18.6716 9.62183 19.5C9.62183 20.3284 10.2934 21 11.1218 21Z" fill="#42526E"/>
<path d="M17.1218 21C17.9503 21 18.6218 20.3284 18.6218 19.5C18.6218 18.6716 17.9503 18 17.1218 18C16.2934 18 15.6218 18.6716 15.6218 19.5C15.6218 20.3284 16.2934 21 17.1218 21Z" fill="#42526E"/>
</svg>
