<svg width="24" height="24" viewBox="0 0 24 24" fill="none" xmlns="http://www.w3.org/2000/svg">
<path d="M13.1807 11.6522L15.8823 9.02171L7.15617 4.24644C6.57784 3.94221 6.03606 3.89951 5.56097 4.23221L13.1807 11.6522ZM16.3427 14.7319L19.1512 13.1938C19.6994 12.8949 20 12.4715 20 12.0018C20 11.533 19.6994 11.1087 19.1522 10.8098L16.6095 9.41935L13.7471 12.2055L16.3427 14.7319ZM5.09136 4.87894C5.03289 5.05418 5 5.24989 5 5.46428V18.5455C5 18.8845 5.07675 19.1762 5.21562 19.4084L12.6133 12.2046L5.09136 4.87894ZM13.1807 12.7562L5.8241 19.9199C5.96479 19.9724 6.11646 20 6.27634 20C6.5614 20 6.85833 19.9182 7.16074 19.7545L15.6164 15.1313L13.1807 12.7562Z" fill="#42526E"/>
</svg>
